<?xml version="1.0" encoding="UTF-8"?>
<svg xmlns="http://www.w3.org/2000/svg" version="1.1" xmlns:xlink="http://www.w3.org/1999/xlink" viewBox="0 0 612 792">
  <!-- Generator: Adobe Illustrator 29.8.4, SVG Export Plug-In . SVG Version: 2.1.1 Build 6)  -->
  <defs>
    <style>
      .st0 {
        fill: url(#linear-gradient2);
      }

      .st0, .st1, .st2, .st3 {
        stroke: #231f20;
        stroke-miterlimit: 10;
      }

      .st1 {
        fill: url(#linear-gradient3);
      }

      .st2 {
        fill: url(#linear-gradient1);
      }

      .st3 {
        fill: url(#linear-gradient);
      }
    </style>
    <linearGradient id="linear-gradient" x1="53.61" y1="303.02" x2="557.2" y2="303.02" gradientUnits="userSpaceOnUse">
      <stop offset="0" stop-color="#2db34a"/>
      <stop offset="1" stop-color="#028cbf"/>
    </linearGradient>
    <linearGradient id="linear-gradient1" x1="77.2" y1="335.07" x2="596.03" y2="335.07" gradientUnits="userSpaceOnUse">
      <stop offset="0" stop-color="#2db34a"/>
      <stop offset="1" stop-color="#028cbf"/>
    </linearGradient>
    <linearGradient id="linear-gradient2" x1="382.75" y1="378.34" x2="510.63" y2="159.41" gradientUnits="userSpaceOnUse">
      <stop offset="0" stop-color="#2db34a"/>
      <stop offset="1" stop-color="#028cbf"/>
    </linearGradient>
    <linearGradient id="linear-gradient3" x1="105.26" y1="363.85" x2="379.09" y2="363.85" xlink:href="#linear-gradient1"/>
  </defs>
  <g id="Layer_1">
    <path class="st3" d="M53.61,163.53s7.28,15.46,14.56,17.48,155.33,0,155.33,0l171.1,262.11,162.61-279.6s-22.65-2.74-25.48,3.33-135.91,239.46-135.91,239.46l-144.81-214.79-12.54-19.82s-.4-9.08-26.7-8.18c-26.29.9-158.16,0-158.16,0Z"/>
  </g>
  <g id="Layer_2">
    <path class="st2" d="M77.2,195.9c.72-.12,4.08,10.31,9.98,15.25,4.65,3.9,10.89,2.55,18.61,2.54,22.81-.02,100.31.24,100.31.24l192.31,293.67,197.63-344.08s-15.1-3.78-22.11,3.24c-7.01,7.01-177.44,305.26-177.44,305.26L223.92,205.44s-5.41-10.08-22.13-9.54c-14.8.48-124.58,0-124.58,0Z"/>
    <path class="st0" d="M391.18,382.69l127.82-218.97s-4.85-2.7-15.64,0-10.25,7.55-18.34,23.73-100.85,172.04-100.85,172.04c0,0-4.31,6.47,7.01,23.19Z"/>
    <path class="st1" d="M190.33,244.05l-70.11-.13-5.13-3.13-4.58-2.8-5.24-12.17,92.07.13s9.71,2.73,13.75,10.55c3.82,7.38,168,265.08,168,265.08,0,0-23.46,2.97-27.78-9.98l-160.99-247.55Z"/>
  </g>
</svg>