<svg xmlns="http://www.w3.org/2000/svg" viewBox="0 0 1600 900" role="img" aria-hidden="true">
  <defs>
    <linearGradient id="bg" x1="0%" y1="0%" x2="100%" y2="100%">
      <stop offset="0%" stop-color="#103246"/>
      <stop offset="100%" stop-color="#0b2132"/>
    </linearGradient>
  </defs>
  <rect width="1600" height="900" fill="url(#bg)"/>
  <g stroke="#7be6db" stroke-opacity="0.28" fill="none">
    <path d="M120 780L420 570L760 640L1060 420L1430 500"/>
    <path d="M180 260L470 340L720 220L960 280L1390 170"/>
    <path d="M90 460L350 320L620 410L870 230L1150 340L1450 250"/>
  </g>
  <g fill="#9af3e8" fill-opacity="0.4">
    <circle cx="120" cy="780" r="8"/>
    <circle cx="420" cy="570" r="8"/>
    <circle cx="760" cy="640" r="8"/>
    <circle cx="1060" cy="420" r="8"/>
    <circle cx="1430" cy="500" r="8"/>
    <circle cx="180" cy="260" r="7"/>
    <circle cx="470" cy="340" r="7"/>
    <circle cx="720" cy="220" r="7"/>
    <circle cx="960" cy="280" r="7"/>
    <circle cx="1390" cy="170" r="7"/>
  </g>
</svg>
